<svg width="996" height="634" viewBox="0 0 996 634" fill="none" xmlns="http://www.w3.org/2000/svg">
<path d="M404.062 33.32C401.566 33.32 399.454 32.8507 397.726 31.912C396.019 30.9733 394.718 29.64 393.822 27.912C392.926 26.184 392.478 24.136 392.478 21.768C392.478 19.3787 392.937 17.32 393.854 15.592C394.771 13.8427 396.094 12.4987 397.822 11.56C399.55 10.6 401.619 10.12 404.03 10.12C405.097 10.12 406.11 10.2267 407.07 10.44C408.051 10.632 408.958 10.92 409.79 11.304C410.622 11.688 411.337 12.1573 411.934 12.712L410.558 15.912C409.555 15.1227 408.531 14.5573 407.486 14.216C406.441 13.8747 405.289 13.704 404.03 13.704C401.641 13.704 399.827 14.3973 398.59 15.784C397.374 17.1707 396.766 19.1653 396.766 21.768C396.766 24.392 397.395 26.3867 398.654 27.752C399.913 29.1173 401.779 29.8 404.254 29.8C405.107 29.8 405.971 29.7147 406.846 29.544C407.721 29.3733 408.574 29.1387 409.406 28.84L408.606 30.664V23.848H403.422V20.808H412.03V31.656C411.347 31.9973 410.558 32.296 409.662 32.552C408.787 32.7867 407.87 32.968 406.91 33.096C405.95 33.2453 405.001 33.32 404.062 33.32ZM416.393 33V17.352H420.297V21.128H419.977C420.275 19.848 420.862 18.8773 421.737 18.216C422.611 17.5333 423.774 17.1387 425.225 17.032L426.441 16.936L426.697 20.328L424.393 20.552C423.091 20.68 422.11 21.0853 421.449 21.768C420.787 22.4293 420.457 23.368 420.457 24.584V33H416.393ZM433.92 33.32C432.789 33.32 431.776 33.1067 430.88 32.68C430.005 32.232 429.312 31.6347 428.799 30.888C428.309 30.1413 428.064 29.2987 428.064 28.36C428.064 27.208 428.362 26.3013 428.96 25.64C429.557 24.9573 430.528 24.4667 431.872 24.168C433.216 23.8693 435.018 23.72 437.28 23.72H438.88V26.024H437.312C436.309 26.024 435.466 26.0667 434.784 26.152C434.101 26.216 433.546 26.3333 433.12 26.504C432.714 26.6533 432.416 26.8667 432.224 27.144C432.053 27.4213 431.968 27.7627 431.968 28.168C431.968 28.872 432.213 29.448 432.704 29.896C433.194 30.344 433.877 30.568 434.752 30.568C435.456 30.568 436.074 30.408 436.608 30.088C437.162 29.7467 437.6 29.288 437.92 28.712C438.24 28.136 438.4 27.4747 438.4 26.728V23.048C438.4 21.9813 438.165 21.2133 437.696 20.744C437.226 20.2747 436.437 20.04 435.328 20.04C434.453 20.04 433.557 20.1787 432.64 20.456C431.722 20.712 430.794 21.1173 429.856 21.672L428.704 18.952C429.258 18.568 429.909 18.2373 430.656 17.96C431.424 17.6613 432.224 17.4373 433.056 17.288C433.909 17.1173 434.709 17.032 435.456 17.032C436.992 17.032 438.25 17.2667 439.232 17.736C440.234 18.2053 440.981 18.92 441.472 19.88C441.962 20.8187 442.208 22.0347 442.208 23.528V33H438.464V29.672H438.72C438.57 30.4187 438.272 31.0693 437.824 31.624C437.397 32.1573 436.853 32.5733 436.192 32.872C435.53 33.1707 434.773 33.32 433.92 33.32ZM452.284 33.32C450.918 33.32 449.713 32.9893 448.668 32.328C447.644 31.6667 446.844 30.728 446.268 29.512C445.692 28.2747 445.404 26.824 445.404 25.16C445.404 23.4747 445.692 22.0347 446.268 20.84C446.844 19.624 447.644 18.6853 448.668 18.024C449.713 17.3627 450.918 17.032 452.284 17.032C453.585 17.032 454.716 17.352 455.676 17.992C456.657 18.632 457.318 19.4747 457.66 20.52H457.308V10.44H461.308V33H457.404V29.672H457.692C457.372 30.7813 456.721 31.6667 455.74 32.328C454.758 32.9893 453.606 33.32 452.284 33.32ZM453.404 30.28C454.598 30.28 455.558 29.8533 456.284 29C457.009 28.1253 457.372 26.8453 457.372 25.16C457.372 23.4533 457.009 22.184 456.284 21.352C455.558 20.4987 454.598 20.072 453.404 20.072C452.209 20.072 451.249 20.4987 450.524 21.352C449.798 22.184 449.436 23.4533 449.436 25.16C449.436 26.8453 449.798 28.1253 450.524 29C451.249 29.8533 452.209 30.28 453.404 30.28ZM473.167 33.32C471.396 33.32 469.871 32.9893 468.591 32.328C467.311 31.6667 466.319 30.728 465.615 29.512C464.932 28.296 464.591 26.856 464.591 25.192C464.591 23.5707 464.922 22.152 465.583 20.936C466.266 19.72 467.194 18.7707 468.367 18.088C469.562 17.384 470.916 17.032 472.431 17.032C473.924 17.032 475.204 17.352 476.271 17.992C477.338 18.632 478.159 19.5387 478.735 20.712C479.332 21.8853 479.631 23.2827 479.631 24.904V26.088H467.823V23.784H476.815L476.303 24.264C476.303 22.8133 475.983 21.704 475.343 20.936C474.703 20.1467 473.786 19.752 472.591 19.752C471.695 19.752 470.927 19.9653 470.287 20.392C469.668 20.7973 469.188 21.384 468.847 22.152C468.527 22.8987 468.367 23.7947 468.367 24.84V25.064C468.367 26.2373 468.548 27.208 468.911 27.976C469.274 28.744 469.818 29.32 470.543 29.704C471.268 30.088 472.164 30.28 473.231 30.28C474.106 30.28 474.98 30.152 475.855 29.896C476.73 29.6187 477.53 29.192 478.255 28.616L479.375 31.304C478.628 31.9227 477.69 32.4133 476.559 32.776C475.428 33.1387 474.298 33.32 473.167 33.32ZM488.527 33.32C487.652 33.32 486.799 33.2453 485.967 33.096C485.156 32.9467 484.409 32.744 483.727 32.488C483.044 32.2107 482.447 31.8693 481.935 31.464L482.959 28.84C483.492 29.1813 484.068 29.48 484.687 29.736C485.305 29.992 485.945 30.184 486.607 30.312C487.268 30.44 487.919 30.504 488.559 30.504C489.583 30.504 490.34 30.3333 490.831 29.992C491.343 29.6293 491.599 29.16 491.599 28.584C491.599 28.0933 491.428 27.72 491.087 27.464C490.767 27.1867 490.276 26.984 489.615 26.856L486.415 26.248C485.092 25.992 484.079 25.512 483.375 24.808C482.692 24.0827 482.351 23.1547 482.351 22.024C482.351 21 482.628 20.1147 483.183 19.368C483.759 18.6213 484.548 18.0453 485.551 17.64C486.553 17.2347 487.705 17.032 489.007 17.032C489.753 17.032 490.479 17.1067 491.183 17.256C491.887 17.384 492.548 17.5867 493.167 17.864C493.807 18.12 494.361 18.4613 494.831 18.888L493.743 21.512C493.337 21.1707 492.868 20.8827 492.335 20.648C491.801 20.392 491.247 20.2 490.671 20.072C490.116 19.9227 489.572 19.848 489.039 19.848C487.993 19.848 487.215 20.0293 486.703 20.392C486.212 20.7547 485.967 21.2347 485.967 21.832C485.967 22.28 486.116 22.6533 486.415 22.952C486.713 23.2507 487.172 23.4533 487.791 23.56L490.991 24.168C492.377 24.424 493.423 24.8933 494.127 25.576C494.852 26.2587 495.215 27.176 495.215 28.328C495.215 29.3733 494.937 30.2693 494.383 31.016C493.828 31.7627 493.049 32.3387 492.047 32.744C491.044 33.128 489.871 33.32 488.527 33.32ZM507.433 33V10.44H515.817C518.334 10.44 520.467 10.8773 522.217 11.752C523.987 12.6267 525.331 13.9067 526.249 15.592C527.187 17.256 527.657 19.2933 527.657 21.704C527.657 24.1147 527.187 26.1627 526.249 27.848C525.331 29.5333 523.987 30.8133 522.217 31.688C520.467 32.5627 518.334 33 515.817 33H507.433ZM511.529 29.608H515.561C518.185 29.608 520.137 28.9573 521.417 27.656C522.718 26.3333 523.369 24.3493 523.369 21.704C523.369 19.0587 522.718 17.0853 521.417 15.784C520.115 14.4827 518.163 13.832 515.561 13.832H511.529V29.608ZM531.168 13.992V10.088H535.648V13.992H531.168ZM531.424 33V17.352H535.424V33H531.424ZM545.308 33.32C544.433 33.32 543.58 33.2453 542.748 33.096C541.937 32.9467 541.191 32.744 540.508 32.488C539.825 32.2107 539.228 31.8693 538.716 31.464L539.74 28.84C540.273 29.1813 540.849 29.48 541.468 29.736C542.087 29.992 542.727 30.184 543.388 30.312C544.049 30.44 544.7 30.504 545.34 30.504C546.364 30.504 547.121 30.3333 547.612 29.992C548.124 29.6293 548.38 29.16 548.38 28.584C548.38 28.0933 548.209 27.72 547.868 27.464C547.548 27.1867 547.057 26.984 546.396 26.856L543.196 26.248C541.873 25.992 540.86 25.512 540.156 24.808C539.473 24.0827 539.132 23.1547 539.132 22.024C539.132 21 539.409 20.1147 539.964 19.368C540.54 18.6213 541.329 18.0453 542.332 17.64C543.335 17.2347 544.487 17.032 545.788 17.032C546.535 17.032 547.26 17.1067 547.964 17.256C548.668 17.384 549.329 17.5867 549.948 17.864C550.588 18.12 551.143 18.4613 551.612 18.888L550.524 21.512C550.119 21.1707 549.649 20.8827 549.116 20.648C548.583 20.392 548.028 20.2 547.452 20.072C546.897 19.9227 546.353 19.848 545.82 19.848C544.775 19.848 543.996 20.0293 543.484 20.392C542.993 20.7547 542.748 21.2347 542.748 21.832C542.748 22.28 542.897 22.6533 543.196 22.952C543.495 23.2507 543.953 23.4533 544.572 23.56L547.772 24.168C549.159 24.424 550.204 24.8933 550.908 25.576C551.633 26.2587 551.996 27.176 551.996 28.328C551.996 29.3733 551.719 30.2693 551.164 31.016C550.609 31.7627 549.831 32.3387 548.828 32.744C547.825 33.128 546.652 33.32 545.308 33.32ZM562.217 33.32C560.126 33.32 558.569 32.7973 557.545 31.752C556.521 30.7067 556.009 29.1813 556.009 27.176V20.36H553.001V17.352H556.009V12.68H560.009V17.352H564.745V20.36H560.009V26.952C560.009 27.976 560.233 28.744 560.681 29.256C561.129 29.768 561.854 30.024 562.857 30.024C563.155 30.024 563.465 29.992 563.785 29.928C564.105 29.8427 564.435 29.7573 564.777 29.672L565.385 32.616C565.001 32.8293 564.51 33 563.913 33.128C563.337 33.256 562.771 33.32 562.217 33.32ZM567.33 33V17.352H571.234V21.128H570.914C571.213 19.848 571.799 18.8773 572.674 18.216C573.549 17.5333 574.711 17.1387 576.162 17.032L577.378 16.936L577.634 20.328L575.33 20.552C574.029 20.68 573.047 21.0853 572.386 21.768C571.725 22.4293 571.394 23.368 571.394 24.584V33H567.33ZM579.605 13.992V10.088H584.085V13.992H579.605ZM579.861 33V17.352H583.861V33H579.861ZM597.042 33.32C595.719 33.32 594.556 32.9893 593.554 32.328C592.572 31.6667 591.922 30.7813 591.602 29.672H591.922V33H588.018V10.44H592.018V20.52H591.634C591.975 19.4747 592.636 18.632 593.618 17.992C594.599 17.352 595.74 17.032 597.042 17.032C598.428 17.032 599.634 17.3627 600.658 18.024C601.682 18.6853 602.482 19.624 603.058 20.84C603.634 22.0347 603.922 23.4747 603.922 25.16C603.922 26.824 603.634 28.2747 603.058 29.512C602.482 30.728 601.671 31.6667 600.626 32.328C599.602 32.9893 598.407 33.32 597.042 33.32ZM595.922 30.28C597.116 30.28 598.076 29.8533 598.802 29C599.527 28.1253 599.89 26.8453 599.89 25.16C599.89 23.4533 599.527 22.184 598.802 21.352C598.076 20.4987 597.116 20.072 595.922 20.072C594.727 20.072 593.767 20.4987 593.042 21.352C592.316 22.184 591.954 23.4533 591.954 25.16C591.954 26.8453 592.316 28.1253 593.042 29C593.767 29.8533 594.727 30.28 595.922 30.28ZM612.869 33.32C611.568 33.32 610.49 33.0853 609.637 32.616C608.784 32.1253 608.144 31.4 607.717 30.44C607.312 29.48 607.109 28.2853 607.109 26.856V17.352H611.109V26.92C611.109 27.6453 611.205 28.2533 611.397 28.744C611.61 29.2347 611.92 29.5973 612.325 29.832C612.752 30.0667 613.285 30.184 613.925 30.184C614.65 30.184 615.28 30.024 615.813 29.704C616.368 29.3627 616.794 28.8933 617.093 28.296C617.413 27.6773 617.573 26.9627 617.573 26.152V17.352H621.573V33H617.669V29.736H618.117C617.669 30.888 616.986 31.7733 616.069 32.392C615.173 33.0107 614.106 33.32 612.869 33.32ZM632.904 33.32C630.814 33.32 629.256 32.7973 628.232 31.752C627.208 30.7067 626.696 29.1813 626.696 27.176V20.36H623.688V17.352H626.696V12.68H630.696V17.352H635.432V20.36H630.696V26.952C630.696 27.976 630.92 28.744 631.368 29.256C631.816 29.768 632.542 30.024 633.544 30.024C633.843 30.024 634.152 29.992 634.472 29.928C634.792 29.8427 635.123 29.7573 635.464 29.672L636.072 32.616C635.688 32.8293 635.198 33 634.6 33.128C634.024 33.256 633.459 33.32 632.904 33.32ZM637.762 13.992V10.088H642.242V13.992H637.762ZM638.018 33V17.352H642.018V33H638.018ZM653.31 33.32C651.688 33.32 650.28 32.9893 649.086 32.328C647.891 31.6667 646.963 30.728 646.302 29.512C645.64 28.2747 645.31 26.824 645.31 25.16C645.31 23.496 645.64 22.056 646.302 20.84C646.963 19.624 647.891 18.6853 649.086 18.024C650.28 17.3627 651.688 17.032 653.31 17.032C654.931 17.032 656.339 17.3627 657.534 18.024C658.728 18.6853 659.656 19.624 660.318 20.84C660.979 22.056 661.31 23.496 661.31 25.16C661.31 26.824 660.979 28.2747 660.318 29.512C659.656 30.728 658.728 31.6667 657.534 32.328C656.339 32.9893 654.931 33.32 653.31 33.32ZM653.31 30.28C654.504 30.28 655.464 29.8533 656.19 29C656.915 28.1253 657.278 26.8453 657.278 25.16C657.278 23.4533 656.915 22.184 656.19 21.352C655.464 20.4987 654.504 20.072 653.31 20.072C652.115 20.072 651.155 20.4987 650.43 21.352C649.704 22.184 649.342 23.4533 649.342 25.16C649.342 26.8453 649.704 28.1253 650.43 29C651.155 29.8533 652.115 30.28 653.31 30.28ZM664.611 33V17.352H668.515V20.488H668.163C668.633 19.3573 669.358 18.504 670.339 17.928C671.342 17.3307 672.473 17.032 673.731 17.032C674.99 17.032 676.025 17.2667 676.835 17.736C677.646 18.2053 678.254 18.92 678.659 19.88C679.065 20.8187 679.267 22.0133 679.267 23.464V33H675.267V23.656C675.267 22.8453 675.161 22.184 674.947 21.672C674.755 21.16 674.446 20.7867 674.019 20.552C673.614 20.296 673.091 20.168 672.451 20.168C671.683 20.168 671.011 20.3387 670.435 20.68C669.859 21 669.411 21.4693 669.091 22.088C668.771 22.6853 668.611 23.3893 668.611 24.2V33H664.611Z" fill="#60A5FA"/>
<path d="M304 55C303.448 55 303 55.4477 303 56C303 56.5523 303.448 57 304 57V55ZM304 57H768V55H304V57Z" fill="#60A5FA"/>
<rect x="454" y="68" width="46" height="22" fill="#60A5FA"/>
<path d="M511.99 88.14L511.87 86.76L513.07 86.68C513.537 86.64 513.924 86.5267 514.23 86.34C514.537 86.14 514.77 85.86 514.93 85.5C515.09 85.14 515.17 84.72 515.17 84.24V73.9H516.81V84.26C516.81 85.02 516.677 85.68 516.41 86.24C516.144 86.7867 515.75 87.2133 515.23 87.52C514.71 87.8267 514.064 88.0067 513.29 88.06L511.99 88.14ZM524.115 88.18C523.168 88.18 522.348 87.9733 521.655 87.56C520.961 87.1467 520.421 86.5667 520.035 85.82C519.661 85.06 519.475 84.1667 519.475 83.14C519.475 82.1133 519.661 81.2267 520.035 80.48C520.421 79.72 520.961 79.1333 521.655 78.72C522.348 78.3067 523.168 78.1 524.115 78.1C525.061 78.1 525.881 78.3067 526.575 78.72C527.268 79.1333 527.801 79.72 528.175 80.48C528.561 81.2267 528.755 82.1133 528.755 83.14C528.755 84.1667 528.561 85.06 528.175 85.82C527.801 86.5667 527.268 87.1467 526.575 87.56C525.881 87.9733 525.061 88.18 524.115 88.18ZM524.115 86.88C525.035 86.88 525.761 86.56 526.295 85.92C526.841 85.2667 527.115 84.3333 527.115 83.12C527.115 81.92 526.841 81 526.295 80.36C525.761 79.72 525.035 79.4 524.115 79.4C523.208 79.4 522.481 79.72 521.935 80.36C521.388 81 521.115 81.92 521.115 83.12C521.115 84.3333 521.388 85.2667 521.935 85.92C522.481 86.56 523.208 86.88 524.115 86.88ZM531.188 88V78.28H532.768V80.44H532.548C532.828 79.6667 533.281 79.0867 533.908 78.7C534.548 78.3 535.281 78.1 536.108 78.1C536.881 78.1 537.521 78.24 538.028 78.52C538.548 78.7867 538.935 79.2067 539.188 79.78C539.441 80.3533 539.568 81.0733 539.568 81.94V88H537.948V82.04C537.948 81.44 537.868 80.9467 537.708 80.56C537.561 80.1733 537.321 79.8867 536.988 79.7C536.668 79.5133 536.248 79.42 535.728 79.42C535.141 79.42 534.628 79.5467 534.188 79.8C533.748 80.0533 533.408 80.4067 533.168 80.86C532.928 81.3133 532.808 81.8467 532.808 82.46V88H531.188ZM547.952 88V73.9H549.332L555.052 84.64H554.452L560.132 73.9H561.512V88H559.992V76.1H560.472L555.292 85.82H554.212L548.972 76.08H549.452V88H547.952ZM564.601 75.86V74.04H566.601V75.86H564.601ZM564.801 88V78.28H566.421V88H564.801ZM573.35 88.18C572.203 88.18 571.343 87.8733 570.77 87.26C570.196 86.6467 569.91 85.7733 569.91 84.64V79.54H568.01V78.28H569.91V75.3H571.53V78.28H574.61V79.54H571.53V84.48C571.53 85.24 571.69 85.82 572.01 86.22C572.33 86.6067 572.85 86.8 573.57 86.8C573.783 86.8 573.996 86.7733 574.21 86.72C574.423 86.6667 574.616 86.6133 574.79 86.56L575.07 87.8C574.896 87.8933 574.643 87.98 574.31 88.06C573.976 88.14 573.656 88.18 573.35 88.18ZM580.464 88.18C579.491 88.18 578.651 87.9667 577.944 87.54C577.238 87.1133 576.691 86.52 576.304 85.76C575.931 84.9867 575.744 84.0933 575.744 83.08C575.744 82.0533 575.931 81.1667 576.304 80.42C576.691 79.6733 577.238 79.1 577.944 78.7C578.651 78.3 579.491 78.1 580.464 78.1C581.064 78.1 581.658 78.2067 582.244 78.42C582.831 78.6333 583.318 78.9333 583.704 79.32L583.144 80.5C582.758 80.1267 582.331 79.8533 581.864 79.68C581.411 79.5067 580.978 79.42 580.564 79.42C579.551 79.42 578.771 79.74 578.224 80.38C577.678 81.0067 577.404 81.9133 577.404 83.1C577.404 84.26 577.678 85.18 578.224 85.86C578.771 86.5267 579.551 86.86 580.564 86.86C580.978 86.86 581.411 86.7733 581.864 86.6C582.331 86.4267 582.758 86.1467 583.144 85.76L583.704 86.94C583.318 87.3267 582.824 87.6333 582.224 87.86C581.638 88.0733 581.051 88.18 580.464 88.18ZM585.602 88V73.9H587.222V80.44H586.962C587.242 79.6667 587.695 79.0867 588.322 78.7C588.962 78.3 589.695 78.1 590.522 78.1C591.295 78.1 591.935 78.24 592.442 78.52C592.962 78.8 593.349 79.2267 593.602 79.8C593.855 80.36 593.982 81.0733 593.982 81.94V88H592.362V82.04C592.362 81.44 592.282 80.9467 592.122 80.56C591.975 80.1733 591.735 79.8867 591.402 79.7C591.082 79.5133 590.662 79.42 590.142 79.42C589.555 79.42 589.042 79.5467 588.602 79.8C588.162 80.0533 587.822 80.4067 587.582 80.86C587.342 81.3133 587.222 81.8467 587.222 82.46V88H585.602ZM601.349 88.18C600.323 88.18 599.436 87.98 598.689 87.58C597.956 87.1667 597.383 86.5867 596.969 85.84C596.569 85.0933 596.369 84.2 596.369 83.16C596.369 82.1467 596.569 81.2667 596.969 80.52C597.369 79.76 597.916 79.1667 598.609 78.74C599.316 78.3133 600.129 78.1 601.049 78.1C601.929 78.1 602.683 78.2933 603.309 78.68C603.936 79.0667 604.416 79.6133 604.749 80.32C605.096 81.0267 605.269 81.8733 605.269 82.86V83.48H597.609V82.42H604.189L603.869 82.68C603.869 81.6133 603.629 80.7867 603.149 80.2C602.683 79.6 601.996 79.3 601.089 79.3C600.409 79.3 599.829 79.46 599.349 79.78C598.883 80.0867 598.529 80.52 598.289 81.08C598.049 81.6267 597.929 82.2667 597.929 83V83.12C597.929 83.9333 598.056 84.62 598.309 85.18C598.576 85.74 598.969 86.1667 599.489 86.46C600.009 86.74 600.629 86.88 601.349 86.88C601.923 86.88 602.476 86.7933 603.009 86.62C603.556 86.4333 604.069 86.1333 604.549 85.72L605.109 86.86C604.669 87.26 604.109 87.58 603.429 87.82C602.749 88.06 602.056 88.18 601.349 88.18ZM610.594 88.18C609.607 88.18 608.86 87.8867 608.354 87.3C607.86 86.7133 607.614 85.8733 607.614 84.78V73.9H609.234V84.66C609.234 85.1267 609.294 85.52 609.414 85.84C609.547 86.16 609.74 86.4 609.994 86.56C610.247 86.72 610.56 86.8 610.934 86.8C611.094 86.8 611.247 86.7933 611.394 86.78C611.554 86.7533 611.7 86.72 611.834 86.68L611.794 88.04C611.58 88.08 611.374 88.1133 611.174 88.14C610.987 88.1667 610.794 88.18 610.594 88.18ZM616.512 88.18C615.525 88.18 614.778 87.8867 614.272 87.3C613.778 86.7133 613.532 85.8733 613.532 84.78V73.9H615.152V84.66C615.152 85.1267 615.212 85.52 615.332 85.84C615.465 86.16 615.658 86.4 615.912 86.56C616.165 86.72 616.478 86.8 616.852 86.8C617.012 86.8 617.165 86.7933 617.312 86.78C617.472 86.7533 617.618 86.72 617.752 86.68L617.712 88.04C617.498 88.08 617.292 88.1133 617.092 88.14C616.905 88.1667 616.712 88.18 616.512 88.18Z" fill="white"/>
<path d="M105.751 115V111.98H99.2509V110.74L106.031 100.9H107.411V110.58H109.511V111.98H107.411V115H105.751ZM105.751 110.58V102.88H106.231L100.651 111.02V110.58H105.751ZM116.503 115.18C115.903 115.18 115.316 115.113 114.743 114.98C114.17 114.847 113.63 114.653 113.123 114.4C112.63 114.147 112.19 113.847 111.803 113.5L112.423 112.2C113.063 112.72 113.71 113.107 114.363 113.36C115.03 113.6 115.736 113.72 116.483 113.72C117.47 113.72 118.236 113.447 118.783 112.9C119.343 112.353 119.623 111.633 119.623 110.74C119.623 109.82 119.356 109.067 118.823 108.48C118.29 107.893 117.556 107.6 116.623 107.6C115.943 107.6 115.343 107.74 114.823 108.02C114.316 108.287 113.856 108.707 113.443 109.28H112.243V100.9H120.423V102.3H113.863V107.92H113.423C113.77 107.36 114.25 106.933 114.863 106.64C115.476 106.333 116.163 106.18 116.923 106.18C117.816 106.18 118.583 106.367 119.223 106.74C119.876 107.113 120.376 107.64 120.723 108.32C121.083 108.987 121.263 109.767 121.263 110.66C121.263 111.54 121.07 112.32 120.683 113C120.296 113.68 119.75 114.213 119.043 114.6C118.336 114.987 117.49 115.18 116.503 115.18ZM127.915 115.5L126.775 114.84L135.075 100.4L136.195 101.06L127.915 115.5ZM126.715 109.36C126.009 109.36 125.395 109.193 124.875 108.86C124.369 108.513 123.982 108.02 123.715 107.38C123.449 106.727 123.315 105.947 123.315 105.04C123.315 103.68 123.615 102.627 124.215 101.88C124.815 101.12 125.649 100.74 126.715 100.74C127.422 100.74 128.029 100.913 128.535 101.26C129.042 101.593 129.429 102.08 129.695 102.72C129.975 103.36 130.115 104.133 130.115 105.04C130.115 105.947 129.975 106.72 129.695 107.36C129.429 108 129.042 108.493 128.535 108.84C128.029 109.187 127.422 109.36 126.715 109.36ZM126.715 108.18C127.329 108.18 127.815 107.92 128.175 107.4C128.535 106.867 128.715 106.08 128.715 105.04C128.715 104 128.535 103.22 128.175 102.7C127.815 102.18 127.329 101.92 126.715 101.92C126.089 101.92 125.595 102.18 125.235 102.7C124.889 103.22 124.715 104 124.715 105.04C124.715 106.08 124.889 106.867 125.235 107.4C125.595 107.92 126.089 108.18 126.715 108.18ZM136.275 115.18C135.582 115.18 134.975 115.013 134.455 114.68C133.949 114.333 133.555 113.84 133.275 113.2C133.009 112.547 132.875 111.767 132.875 110.86C132.875 109.5 133.175 108.447 133.775 107.7C134.389 106.94 135.222 106.56 136.275 106.56C136.982 106.56 137.589 106.733 138.095 107.08C138.602 107.413 138.989 107.9 139.255 108.54C139.535 109.18 139.675 109.953 139.675 110.86C139.675 111.767 139.542 112.547 139.275 113.2C139.009 113.84 138.622 114.333 138.115 114.68C137.609 115.013 136.995 115.18 136.275 115.18ZM136.275 114C136.902 114 137.389 113.74 137.735 113.22C138.095 112.687 138.275 111.9 138.275 110.86C138.275 109.82 138.095 109.04 137.735 108.52C137.389 108 136.902 107.74 136.275 107.74C135.662 107.74 135.175 108 134.815 108.52C134.469 109.04 134.295 109.82 134.295 110.86C134.295 111.913 134.469 112.7 134.815 113.22C135.175 113.74 135.662 114 136.275 114Z" fill="white"/>
<line x1="173" y1="109.854" x2="898" y2="109.618" stroke="#494949"/>
<path d="M100.011 345V343.76L104.831 338.56C105.284 338.067 105.651 337.607 105.931 337.18C106.211 336.74 106.418 336.313 106.551 335.9C106.684 335.487 106.751 335.067 106.751 334.64C106.751 333.84 106.504 333.233 106.011 332.82C105.531 332.393 104.824 332.18 103.891 332.18C103.171 332.18 102.498 332.313 101.871 332.58C101.258 332.833 100.671 333.233 100.111 333.78L99.4909 332.5C100.011 331.967 100.671 331.54 101.471 331.22C102.284 330.887 103.138 330.72 104.031 330.72C104.978 330.72 105.778 330.867 106.431 331.16C107.084 331.453 107.578 331.887 107.911 332.46C108.244 333.02 108.411 333.707 108.411 334.52C108.411 334.947 108.358 335.367 108.251 335.78C108.158 336.18 108.004 336.587 107.791 337C107.591 337.4 107.331 337.813 107.011 338.24C106.704 338.667 106.331 339.107 105.891 339.56L101.651 344.06V343.6H108.991V345H100.011ZM116.203 345.18C115.136 345.18 114.23 344.907 113.483 344.36C112.75 343.8 112.196 342.98 111.823 341.9C111.45 340.82 111.263 339.5 111.263 337.94C111.263 336.367 111.45 335.047 111.823 333.98C112.196 332.9 112.75 332.087 113.483 331.54C114.23 330.993 115.136 330.72 116.203 330.72C117.283 330.72 118.19 330.993 118.923 331.54C119.656 332.087 120.21 332.893 120.583 333.96C120.956 335.027 121.143 336.347 121.143 337.92C121.143 339.493 120.956 340.82 120.583 341.9C120.21 342.98 119.656 343.8 118.923 344.36C118.19 344.907 117.283 345.18 116.203 345.18ZM116.203 343.76C117.323 343.76 118.15 343.287 118.683 342.34C119.23 341.393 119.503 339.92 119.503 337.92C119.503 335.92 119.236 334.46 118.703 333.54C118.17 332.607 117.336 332.14 116.203 332.14C115.096 332.14 114.27 332.607 113.723 333.54C113.176 334.473 112.903 335.933 112.903 337.92C112.903 339.92 113.17 341.393 113.703 342.34C114.25 343.287 115.083 343.76 116.203 343.76ZM127.915 345.5L126.775 344.84L135.075 330.4L136.195 331.06L127.915 345.5ZM126.715 339.36C126.009 339.36 125.395 339.193 124.875 338.86C124.369 338.513 123.982 338.02 123.715 337.38C123.449 336.727 123.315 335.947 123.315 335.04C123.315 333.68 123.615 332.627 124.215 331.88C124.815 331.12 125.649 330.74 126.715 330.74C127.422 330.74 128.029 330.913 128.535 331.26C129.042 331.593 129.429 332.08 129.695 332.72C129.975 333.36 130.115 334.133 130.115 335.04C130.115 335.947 129.975 336.72 129.695 337.36C129.429 338 129.042 338.493 128.535 338.84C128.029 339.187 127.422 339.36 126.715 339.36ZM126.715 338.18C127.329 338.18 127.815 337.92 128.175 337.4C128.535 336.867 128.715 336.08 128.715 335.04C128.715 334 128.535 333.22 128.175 332.7C127.815 332.18 127.329 331.92 126.715 331.92C126.089 331.92 125.595 332.18 125.235 332.7C124.889 333.22 124.715 334 124.715 335.04C124.715 336.08 124.889 336.867 125.235 337.4C125.595 337.92 126.089 338.18 126.715 338.18ZM136.275 345.18C135.582 345.18 134.975 345.013 134.455 344.68C133.949 344.333 133.555 343.84 133.275 343.2C133.009 342.547 132.875 341.767 132.875 340.86C132.875 339.5 133.175 338.447 133.775 337.7C134.389 336.94 135.222 336.56 136.275 336.56C136.982 336.56 137.589 336.733 138.095 337.08C138.602 337.413 138.989 337.9 139.255 338.54C139.535 339.18 139.675 339.953 139.675 340.86C139.675 341.767 139.542 342.547 139.275 343.2C139.009 343.84 138.622 344.333 138.115 344.68C137.609 345.013 136.995 345.18 136.275 345.18ZM136.275 344C136.902 344 137.389 343.74 137.735 343.22C138.095 342.687 138.275 341.9 138.275 340.86C138.275 339.82 138.095 339.04 137.735 338.52C137.389 338 136.902 337.74 136.275 337.74C135.662 337.74 135.175 338 134.815 338.52C134.469 339.04 134.295 339.82 134.295 340.86C134.295 341.913 134.469 342.7 134.815 343.22C135.175 343.74 135.662 344 136.275 344Z" fill="white"/>
<line x1="173" y1="339.854" x2="898" y2="339.618" stroke="#494949"/>
<path d="M100.011 455V453.76L104.831 448.56C105.284 448.067 105.651 447.607 105.931 447.18C106.211 446.74 106.418 446.313 106.551 445.9C106.684 445.487 106.751 445.067 106.751 444.64C106.751 443.84 106.504 443.233 106.011 442.82C105.531 442.393 104.824 442.18 103.891 442.18C103.171 442.18 102.498 442.313 101.871 442.58C101.258 442.833 100.671 443.233 100.111 443.78L99.4909 442.5C100.011 441.967 100.671 441.54 101.471 441.22C102.284 440.887 103.138 440.72 104.031 440.72C104.978 440.72 105.778 440.867 106.431 441.16C107.084 441.453 107.578 441.887 107.911 442.46C108.244 443.02 108.411 443.707 108.411 444.52C108.411 444.947 108.358 445.367 108.251 445.78C108.158 446.18 108.004 446.587 107.791 447C107.591 447.4 107.331 447.813 107.011 448.24C106.704 448.667 106.331 449.107 105.891 449.56L101.651 454.06V453.6H108.991V455H100.011ZM116.203 455.18C115.136 455.18 114.23 454.907 113.483 454.36C112.75 453.8 112.196 452.98 111.823 451.9C111.45 450.82 111.263 449.5 111.263 447.94C111.263 446.367 111.45 445.047 111.823 443.98C112.196 442.9 112.75 442.087 113.483 441.54C114.23 440.993 115.136 440.72 116.203 440.72C117.283 440.72 118.19 440.993 118.923 441.54C119.656 442.087 120.21 442.893 120.583 443.96C120.956 445.027 121.143 446.347 121.143 447.92C121.143 449.493 120.956 450.82 120.583 451.9C120.21 452.98 119.656 453.8 118.923 454.36C118.19 454.907 117.283 455.18 116.203 455.18ZM116.203 453.76C117.323 453.76 118.15 453.287 118.683 452.34C119.23 451.393 119.503 449.92 119.503 447.92C119.503 445.92 119.236 444.46 118.703 443.54C118.17 442.607 117.336 442.14 116.203 442.14C115.096 442.14 114.27 442.607 113.723 443.54C113.176 444.473 112.903 445.933 112.903 447.92C112.903 449.92 113.17 451.393 113.703 452.34C114.25 453.287 115.083 453.76 116.203 453.76ZM127.915 455.5L126.775 454.84L135.075 440.4L136.195 441.06L127.915 455.5ZM126.715 449.36C126.009 449.36 125.395 449.193 124.875 448.86C124.369 448.513 123.982 448.02 123.715 447.38C123.449 446.727 123.315 445.947 123.315 445.04C123.315 443.68 123.615 442.627 124.215 441.88C124.815 441.12 125.649 440.74 126.715 440.74C127.422 440.74 128.029 440.913 128.535 441.26C129.042 441.593 129.429 442.08 129.695 442.72C129.975 443.36 130.115 444.133 130.115 445.04C130.115 445.947 129.975 446.72 129.695 447.36C129.429 448 129.042 448.493 128.535 448.84C128.029 449.187 127.422 449.36 126.715 449.36ZM126.715 448.18C127.329 448.18 127.815 447.92 128.175 447.4C128.535 446.867 128.715 446.08 128.715 445.04C128.715 444 128.535 443.22 128.175 442.7C127.815 442.18 127.329 441.92 126.715 441.92C126.089 441.92 125.595 442.18 125.235 442.7C124.889 443.22 124.715 444 124.715 445.04C124.715 446.08 124.889 446.867 125.235 447.4C125.595 447.92 126.089 448.18 126.715 448.18ZM136.275 455.18C135.582 455.18 134.975 455.013 134.455 454.68C133.949 454.333 133.555 453.84 133.275 453.2C133.009 452.547 132.875 451.767 132.875 450.86C132.875 449.5 133.175 448.447 133.775 447.7C134.389 446.94 135.222 446.56 136.275 446.56C136.982 446.56 137.589 446.733 138.095 447.08C138.602 447.413 138.989 447.9 139.255 448.54C139.535 449.18 139.675 449.953 139.675 450.86C139.675 451.767 139.542 452.547 139.275 453.2C139.009 453.84 138.622 454.333 138.115 454.68C137.609 455.013 136.995 455.18 136.275 455.18ZM136.275 454C136.902 454 137.389 453.74 137.735 453.22C138.095 452.687 138.275 451.9 138.275 450.86C138.275 449.82 138.095 449.04 137.735 448.52C137.389 448 136.902 447.74 136.275 447.74C135.662 447.74 135.175 448 134.815 448.52C134.469 449.04 134.295 449.82 134.295 450.86C134.295 451.913 134.469 452.7 134.815 453.22C135.175 453.74 135.662 454 136.275 454Z" fill="white"/>
<line x1="173" y1="449.854" x2="898" y2="449.618" stroke="#494949"/>
<path d="M100.011 230V228.76L104.831 223.56C105.284 223.067 105.651 222.607 105.931 222.18C106.211 221.74 106.418 221.313 106.551 220.9C106.684 220.487 106.751 220.067 106.751 219.64C106.751 218.84 106.504 218.233 106.011 217.82C105.531 217.393 104.824 217.18 103.891 217.18C103.171 217.18 102.498 217.313 101.871 217.58C101.258 217.833 100.671 218.233 100.111 218.78L99.4909 217.5C100.011 216.967 100.671 216.54 101.471 216.22C102.284 215.887 103.138 215.72 104.031 215.72C104.978 215.72 105.778 215.867 106.431 216.16C107.084 216.453 107.578 216.887 107.911 217.46C108.244 218.02 108.411 218.707 108.411 219.52C108.411 219.947 108.358 220.367 108.251 220.78C108.158 221.18 108.004 221.587 107.791 222C107.591 222.4 107.331 222.813 107.011 223.24C106.704 223.667 106.331 224.107 105.891 224.56L101.651 229.06V228.6H108.991V230H100.011ZM116.203 230.18C115.136 230.18 114.23 229.907 113.483 229.36C112.75 228.8 112.196 227.98 111.823 226.9C111.45 225.82 111.263 224.5 111.263 222.94C111.263 221.367 111.45 220.047 111.823 218.98C112.196 217.9 112.75 217.087 113.483 216.54C114.23 215.993 115.136 215.72 116.203 215.72C117.283 215.72 118.19 215.993 118.923 216.54C119.656 217.087 120.21 217.893 120.583 218.96C120.956 220.027 121.143 221.347 121.143 222.92C121.143 224.493 120.956 225.82 120.583 226.9C120.21 227.98 119.656 228.8 118.923 229.36C118.19 229.907 117.283 230.18 116.203 230.18ZM116.203 228.76C117.323 228.76 118.15 228.287 118.683 227.34C119.23 226.393 119.503 224.92 119.503 222.92C119.503 220.92 119.236 219.46 118.703 218.54C118.17 217.607 117.336 217.14 116.203 217.14C115.096 217.14 114.27 217.607 113.723 218.54C113.176 219.473 112.903 220.933 112.903 222.92C112.903 224.92 113.17 226.393 113.703 227.34C114.25 228.287 115.083 228.76 116.203 228.76ZM127.915 230.5L126.775 229.84L135.075 215.4L136.195 216.06L127.915 230.5ZM126.715 224.36C126.009 224.36 125.395 224.193 124.875 223.86C124.369 223.513 123.982 223.02 123.715 222.38C123.449 221.727 123.315 220.947 123.315 220.04C123.315 218.68 123.615 217.627 124.215 216.88C124.815 216.12 125.649 215.74 126.715 215.74C127.422 215.74 128.029 215.913 128.535 216.26C129.042 216.593 129.429 217.08 129.695 217.72C129.975 218.36 130.115 219.133 130.115 220.04C130.115 220.947 129.975 221.72 129.695 222.36C129.429 223 129.042 223.493 128.535 223.84C128.029 224.187 127.422 224.36 126.715 224.36ZM126.715 223.18C127.329 223.18 127.815 222.92 128.175 222.4C128.535 221.867 128.715 221.08 128.715 220.04C128.715 219 128.535 218.22 128.175 217.7C127.815 217.18 127.329 216.92 126.715 216.92C126.089 216.92 125.595 217.18 125.235 217.7C124.889 218.22 124.715 219 124.715 220.04C124.715 221.08 124.889 221.867 125.235 222.4C125.595 222.92 126.089 223.18 126.715 223.18ZM136.275 230.18C135.582 230.18 134.975 230.013 134.455 229.68C133.949 229.333 133.555 228.84 133.275 228.2C133.009 227.547 132.875 226.767 132.875 225.86C132.875 224.5 133.175 223.447 133.775 222.7C134.389 221.94 135.222 221.56 136.275 221.56C136.982 221.56 137.589 221.733 138.095 222.08C138.602 222.413 138.989 222.9 139.255 223.54C139.535 224.18 139.675 224.953 139.675 225.86C139.675 226.767 139.542 227.547 139.275 228.2C139.009 228.84 138.622 229.333 138.115 229.68C137.609 230.013 136.995 230.18 136.275 230.18ZM136.275 229C136.902 229 137.389 228.74 137.735 228.22C138.095 227.687 138.275 226.9 138.275 225.86C138.275 224.82 138.095 224.04 137.735 223.52C137.389 223 136.902 222.74 136.275 222.74C135.662 222.74 135.175 223 134.815 223.52C134.469 224.04 134.295 224.82 134.295 225.86C134.295 226.913 134.469 227.7 134.815 228.22C135.175 228.74 135.662 229 136.275 229Z" fill="white"/>
<line x1="173" y1="224.854" x2="898" y2="224.618" stroke="#494949"/>
<path d="M104.207 572.18C103.14 572.18 102.234 571.907 101.487 571.36C100.754 570.8 100.2 569.98 99.827 568.9C99.4537 567.82 99.267 566.5 99.267 564.94C99.267 563.367 99.4537 562.047 99.827 560.98C100.2 559.9 100.754 559.087 101.487 558.54C102.234 557.993 103.14 557.72 104.207 557.72C105.287 557.72 106.194 557.993 106.927 558.54C107.66 559.087 108.214 559.893 108.587 560.96C108.96 562.027 109.147 563.347 109.147 564.92C109.147 566.493 108.96 567.82 108.587 568.9C108.214 569.98 107.66 570.8 106.927 571.36C106.194 571.907 105.287 572.18 104.207 572.18ZM104.207 570.76C105.327 570.76 106.154 570.287 106.687 569.34C107.234 568.393 107.507 566.92 107.507 564.92C107.507 562.92 107.24 561.46 106.707 560.54C106.174 559.607 105.34 559.14 104.207 559.14C103.1 559.14 102.274 559.607 101.727 560.54C101.18 561.473 100.907 562.933 100.907 564.92C100.907 566.92 101.174 568.393 101.707 569.34C102.254 570.287 103.087 570.76 104.207 570.76ZM115.919 572.5L114.779 571.84L123.079 557.4L124.199 558.06L115.919 572.5ZM114.719 566.36C114.013 566.36 113.399 566.193 112.879 565.86C112.373 565.513 111.986 565.02 111.719 564.38C111.453 563.727 111.319 562.947 111.319 562.04C111.319 560.68 111.619 559.627 112.219 558.88C112.819 558.12 113.653 557.74 114.719 557.74C115.426 557.74 116.033 557.913 116.539 558.26C117.046 558.593 117.433 559.08 117.699 559.72C117.979 560.36 118.119 561.133 118.119 562.04C118.119 562.947 117.979 563.72 117.699 564.36C117.433 565 117.046 565.493 116.539 565.84C116.033 566.187 115.426 566.36 114.719 566.36ZM114.719 565.18C115.333 565.18 115.819 564.92 116.179 564.4C116.539 563.867 116.719 563.08 116.719 562.04C116.719 561 116.539 560.22 116.179 559.7C115.819 559.18 115.333 558.92 114.719 558.92C114.093 558.92 113.599 559.18 113.239 559.7C112.893 560.22 112.719 561 112.719 562.04C112.719 563.08 112.893 563.867 113.239 564.4C113.599 564.92 114.093 565.18 114.719 565.18ZM124.279 572.18C123.586 572.18 122.979 572.013 122.459 571.68C121.953 571.333 121.559 570.84 121.279 570.2C121.013 569.547 120.879 568.767 120.879 567.86C120.879 566.5 121.179 565.447 121.779 564.7C122.393 563.94 123.226 563.56 124.279 563.56C124.986 563.56 125.593 563.733 126.099 564.08C126.606 564.413 126.993 564.9 127.259 565.54C127.539 566.18 127.679 566.953 127.679 567.86C127.679 568.767 127.546 569.547 127.279 570.2C127.013 570.84 126.626 571.333 126.119 571.68C125.613 572.013 124.999 572.18 124.279 572.18ZM124.279 571C124.906 571 125.393 570.74 125.739 570.22C126.099 569.687 126.279 568.9 126.279 567.86C126.279 566.82 126.099 566.04 125.739 565.52C125.393 565 124.906 564.74 124.279 564.74C123.666 564.74 123.179 565 122.819 565.52C122.473 566.04 122.299 566.82 122.299 567.86C122.299 568.913 122.473 569.7 122.819 570.22C123.179 570.74 123.666 571 124.279 571Z" fill="white"/>
<line x1="172" y1="565" x2="898" y2="565" stroke="#494949"/>
<line x1="172.5" y1="109.5" x2="172.5" y2="564.5" stroke="#494949"/>
<line x1="293.5" y1="109.5" x2="293.5" y2="564.5" stroke="#494949"/>
<line x1="414.5" y1="109.5" x2="414.5" y2="564.5" stroke="#494949"/>
<line x1="535.5" y1="109.5" x2="535.5" y2="564.5" stroke="#494949"/>
<line x1="656.5" y1="109.5" x2="656.5" y2="564.5" stroke="#494949"/>
<line x1="777.5" y1="109.5" x2="777.5" y2="564.5" stroke="#494949"/>
<line x1="898.5" y1="109.5" x2="898.5" y2="564.5" stroke="#494949"/>
<path d="M203 135C203 129.477 207.477 125 213 125H271C276.523 125 281 129.477 281 135V566H203V135Z" fill="#60A5FA"/>
<path d="M235.095 599.255L241.315 585.155H242.715L248.935 599.255H247.235L245.495 595.235L246.295 595.655H237.695L238.515 595.235L236.795 599.255H235.095ZM241.995 587.075L238.775 594.655L238.295 594.275H245.695L245.255 594.655L242.035 587.075H241.995Z" fill="white"/>
<path d="M323 250C323 244.477 327.477 240 333 240H391C396.523 240 401 244.477 401 250V566H323V250Z" fill="#60A5FA"/>
<path d="M356.982 599.43V585.33H362.622C364.062 585.33 365.182 585.65 365.982 586.29C366.782 586.93 367.182 587.837 367.182 589.01C367.182 589.89 366.922 590.623 366.402 591.21C365.896 591.797 365.202 592.183 364.322 592.37V592.09C364.989 592.17 365.562 592.363 366.042 592.67C366.522 592.963 366.889 593.357 367.142 593.85C367.396 594.33 367.522 594.897 367.522 595.55C367.522 596.39 367.336 597.103 366.962 597.69C366.602 598.263 366.076 598.697 365.382 598.99C364.689 599.283 363.849 599.43 362.862 599.43H356.982ZM358.582 598.11H362.702C363.129 598.11 363.509 598.077 363.842 598.01C364.189 597.943 364.489 597.843 364.742 597.71C364.996 597.563 365.209 597.39 365.382 597.19C365.556 596.99 365.682 596.75 365.762 596.47C365.856 596.19 365.902 595.877 365.902 595.53C365.902 595.17 365.856 594.857 365.762 594.59C365.682 594.31 365.556 594.07 365.382 593.87C365.209 593.657 364.996 593.483 364.742 593.35C364.489 593.217 364.189 593.117 363.842 593.05C363.509 592.983 363.129 592.95 362.702 592.95H358.582V598.11ZM358.582 591.63H362.382C363.422 591.63 364.209 591.417 364.742 590.99C365.289 590.563 365.562 589.95 365.562 589.15C365.562 588.323 365.289 587.703 364.742 587.29C364.209 586.863 363.422 586.65 362.382 586.65H358.582V591.63Z" fill="white"/>
<path d="M440 426C440 420.477 444.477 416 450 416H508C513.523 416 518 420.477 518 426V566H440V426Z" fill="#60A5FA"/>
<path d="M480.111 599.18C478.725 599.18 477.538 598.887 476.551 598.3C475.565 597.713 474.805 596.88 474.271 595.8C473.751 594.72 473.491 593.433 473.491 591.94C473.491 590.447 473.751 589.167 474.271 588.1C474.805 587.02 475.565 586.187 476.551 585.6C477.538 585.013 478.725 584.72 480.111 584.72C481.085 584.72 481.985 584.873 482.811 585.18C483.638 585.487 484.331 585.933 484.891 586.52L484.251 587.86C483.638 587.287 482.998 586.873 482.331 586.62C481.678 586.353 480.951 586.22 480.151 586.22C478.565 586.22 477.351 586.72 476.511 587.72C475.671 588.72 475.251 590.127 475.251 591.94C475.251 593.753 475.671 595.167 476.511 596.18C477.351 597.18 478.565 597.68 480.151 597.68C480.951 597.68 481.678 597.553 482.331 597.3C482.998 597.033 483.638 596.613 484.251 596.04L484.891 597.38C484.331 597.953 483.638 598.4 482.811 598.72C481.985 599.027 481.085 599.18 480.111 599.18Z" fill="white"/>
<path d="M563 516C563 510.477 567.477 506 573 506H631C636.523 506 641 510.477 641 516V565.992H563V516Z" fill="#60A5FA"/>
<path d="M596.318 599.247V585.147H601.078C602.611 585.147 603.905 585.42 604.958 585.967C606.025 586.5 606.831 587.294 607.378 588.347C607.938 589.387 608.218 590.667 608.218 592.187C608.218 593.707 607.938 594.994 607.378 596.047C606.831 597.1 606.025 597.9 604.958 598.447C603.905 598.98 602.611 599.247 601.078 599.247H596.318ZM597.958 597.847H600.958C602.811 597.847 604.191 597.374 605.098 596.427C606.018 595.48 606.478 594.067 606.478 592.187C606.478 590.307 606.018 588.9 605.098 587.967C604.178 587.02 602.798 586.547 600.958 586.547H597.958V597.847Z" fill="white"/>
<path d="M681 554C681 548.477 685.477 544 691 544H749C754.523 544 759 548.477 759 554V565.92H681V554Z" fill="#60A5FA"/>
<path d="M716.261 599.175V585.075H724.981V586.455H717.901V591.375H724.581V592.755H717.901V599.175H716.261Z" fill="white"/>
<path d="M802 479C802 473.477 806.477 469 812 469H870C875.523 469 880 473.477 880 479V565.911H802V479Z" fill="#60A5FA"/>
<path d="M835.534 599.165L830.594 585.065H832.314L836.654 597.765H835.954L840.374 585.065H841.694L846.054 597.765H845.434L849.794 585.065H851.434L846.494 599.165H845.034L840.794 586.965H841.234L836.954 599.165H835.534Z" fill="white"/>
</svg>
