<svg width="28" height="29" viewBox="0 0 28 29" fill="none" xmlns="http://www.w3.org/2000/svg">
<path fill-rule="evenodd" clip-rule="evenodd" d="M14 24.9241V17.9241H15.75V24.9241H24.5V9.17413H26.25V24.9241C26.25 25.3883 26.0656 25.8334 25.7374 26.1616C25.4092 26.4898 24.9641 26.6741 24.5 26.6741H3.5C3.03587 26.6741 2.59075 26.4898 2.26256 26.1616C1.93437 25.8334 1.75 25.3883 1.75 24.9241V21.4241H3.5V24.9241H14ZM22.4928 7.16863L17.2445 12.4186C17.5252 13.003 17.5798 13.6706 17.3976 14.2928C17.2155 14.915 16.8096 15.4478 16.258 15.7885C15.7065 16.1292 15.0484 16.2538 14.4105 16.1383C13.7726 16.0227 13.2 15.6752 12.803 15.1626L8.0535 16.7446L7 17.0964C6.98896 17.7156 6.75936 18.3109 6.35179 18.7772C5.94422 19.2434 5.38492 19.5506 4.77278 19.6443C4.16063 19.7381 3.53505 19.6124 3.00663 19.2894C2.4782 18.9665 2.08096 18.4672 1.88512 17.8797C1.68929 17.2922 1.70747 16.6543 1.93646 16.079C2.16545 15.5036 2.59049 15.0276 3.13646 14.7354C3.68242 14.4431 4.31414 14.3532 4.91996 14.4817C5.52577 14.6101 6.06666 14.9487 6.447 15.4374L12.25 13.5019C12.2578 13.0625 12.3758 12.6321 12.5931 12.2502C12.8105 11.8683 13.1203 11.547 13.494 11.3159C13.8678 11.0848 14.2936 10.9512 14.7324 10.9274C15.1712 10.9036 15.6089 10.9903 16.0055 11.1796L21.2555 5.92963C20.9886 5.37086 20.9278 4.73573 21.0839 4.13649C21.24 3.53725 21.603 3.01249 22.1086 2.65496C22.6142 2.29743 23.2299 2.13015 23.8469 2.18269C24.4639 2.23523 25.0424 2.5042 25.4803 2.94207C25.9182 3.37993 26.1872 3.9585 26.2397 4.57551C26.2922 5.19251 26.125 5.80823 25.7674 6.31382C25.4099 6.81942 24.8851 7.18234 24.2859 7.33845C23.6866 7.49455 23.0515 7.43378 22.4928 7.16688" fill="white"/>
</svg>
