<svg width="34" height="35" viewBox="0 0 34 35" fill="none" xmlns="http://www.w3.org/2000/svg">
<path fill-rule="evenodd" clip-rule="evenodd" d="M5.66668 4.67407C4.91523 4.67407 4.19456 4.97258 3.66321 5.50394C3.13185 6.03529 2.83334 6.75596 2.83334 7.50741V27.3407C2.83334 28.0922 3.13185 28.8129 3.66321 29.3442C4.19456 29.8756 4.91523 30.1741 5.66668 30.1741H28.3333C29.0848 30.1741 29.8055 29.8756 30.3368 29.3442C30.8682 28.8129 31.1667 28.0922 31.1667 27.3407V7.50741C31.1667 6.75596 30.8682 6.03529 30.3368 5.50394C29.8055 4.97258 29.0848 4.67407 28.3333 4.67407H5.66668ZM12.2188 12.6499C12.2502 12.3791 12.3445 12.1193 12.4941 11.8914C12.6438 11.6635 12.8446 11.4737 13.0807 11.3372C13.3167 11.2006 13.5813 11.1212 13.8535 11.1051C14.1257 11.089 14.3979 11.1368 14.6483 11.2446C15.3623 11.5506 16.8697 12.2391 18.7793 13.3412C20.1214 14.1083 21.4175 14.9531 22.661 15.8714C22.8796 16.0341 23.0572 16.2456 23.1795 16.4891C23.3019 16.7327 23.3656 17.0014 23.3656 17.2739C23.3656 17.5464 23.3019 17.8152 23.1795 18.0587C23.0572 18.3022 22.8796 18.5137 22.661 18.6764C21.4175 19.5937 20.1214 20.4376 18.7793 21.2037C17.4444 21.9835 16.0651 22.6845 14.6483 23.3032C14.3979 23.4113 14.1257 23.4593 13.8534 23.4434C13.5811 23.4275 13.3163 23.3481 13.0802 23.2115C12.8441 23.0749 12.6432 22.885 12.4936 22.6569C12.344 22.4288 12.2499 22.1689 12.2188 21.8979C12.0488 20.3625 11.9655 18.8187 11.9694 17.2739C11.9694 15.0767 12.1281 13.422 12.2188 12.6499Z" fill="white"/>
</svg>
