<svg width="41" height="42" viewBox="0 0 41 42" fill="none" xmlns="http://www.w3.org/2000/svg">
<path d="M32.9196 9.3131C30.6475 8.25393 28.1875 7.48518 25.625 7.04102C25.5799 7.04166 25.537 7.06008 25.5054 7.09227C25.1979 7.65602 24.8392 8.3906 24.6 8.95435C21.882 8.54461 19.118 8.54461 16.4 8.95435C16.1608 8.37352 15.8021 7.65602 15.4775 7.09227C15.4604 7.0581 15.4092 7.04102 15.3579 7.04102C12.7954 7.48518 10.3525 8.25393 8.06334 9.3131C8.04626 9.3131 8.02917 9.33018 8.01209 9.34727C3.36542 16.3002 2.08417 23.0652 2.71626 29.7619C2.71626 29.796 2.73334 29.8302 2.76751 29.8473C5.84251 32.1023 8.79792 33.4689 11.7192 34.3744C11.7704 34.3914 11.8217 34.3744 11.8388 34.3402C12.5221 33.4006 13.1371 32.4098 13.6667 31.3677C13.7008 31.2994 13.6667 31.231 13.5983 31.2139C12.6246 30.8381 11.7021 30.3939 10.7967 29.8814C10.7283 29.8473 10.7283 29.7448 10.7796 29.6935C10.9675 29.5569 11.1554 29.4031 11.3433 29.2664C11.3775 29.2323 11.4288 29.2323 11.4629 29.2494C17.3396 31.9314 23.6775 31.9314 29.4858 29.2494C29.52 29.2323 29.5713 29.2323 29.6054 29.2664C29.7933 29.4202 29.9813 29.5569 30.1692 29.7106C30.2375 29.7619 30.2375 29.8644 30.1521 29.8985C29.2638 30.4281 28.3242 30.8552 27.3504 31.231C27.2821 31.2481 27.265 31.3335 27.2821 31.3848C27.8288 32.4269 28.4438 33.4177 29.11 34.3573C29.1613 34.3744 29.2125 34.3914 29.2638 34.3744C32.2021 33.4689 35.1575 32.1023 38.2325 29.8473C38.2667 29.8302 38.2838 29.796 38.2838 29.7619C39.0354 22.0231 37.0367 15.3094 32.9879 9.34727C32.9708 9.33018 32.9538 9.3131 32.9196 9.3131ZM14.555 25.6789C12.7954 25.6789 11.3263 24.056 11.3263 22.0573C11.3263 20.0585 12.7613 18.4356 14.555 18.4356C16.3658 18.4356 17.8008 20.0756 17.7838 22.0573C17.7838 24.056 16.3488 25.6789 14.555 25.6789ZM26.4621 25.6789C24.7025 25.6789 23.2333 24.056 23.2333 22.0573C23.2333 20.0585 24.6683 18.4356 26.4621 18.4356C28.2729 18.4356 29.7079 20.0756 29.6908 22.0573C29.6908 24.056 28.2729 25.6789 26.4621 25.6789Z" fill="white"/>
</svg>
