<svg width="41" height="42" viewBox="0 0 41 42" fill="none" xmlns="http://www.w3.org/2000/svg">
<path d="M20.5 3.62402C18.2566 3.62402 16.0351 4.0659 13.9625 4.92441C11.8898 5.78293 10.0066 7.04128 8.42025 8.62761C5.2165 11.8314 3.41666 16.1766 3.41666 20.7074C3.41666 28.2582 8.31957 34.6644 15.1017 36.9365C15.9558 37.0732 16.2292 36.5436 16.2292 36.0824V33.1953C11.4971 34.2203 10.4892 30.9061 10.4892 30.9061C9.70332 28.9244 8.59291 28.3949 8.59291 28.3949C7.03832 27.3357 8.71249 27.3699 8.71249 27.3699C10.4208 27.4894 11.3262 29.1294 11.3262 29.1294C12.8125 31.7261 15.3237 30.9574 16.2975 30.5474C16.4512 29.4369 16.8954 28.6853 17.3737 28.2582C13.5812 27.8311 9.60082 26.3619 9.60082 19.8532C9.60082 17.9569 10.25 16.4365 11.3604 15.2236C11.1896 14.7965 10.5917 13.0199 11.5312 10.7136C11.5312 10.7136 12.9662 10.2524 16.2292 12.4561C17.5787 12.0803 19.0479 11.8924 20.5 11.8924C21.9521 11.8924 23.4212 12.0803 24.7708 12.4561C28.0337 10.2524 29.4687 10.7136 29.4687 10.7136C30.4083 13.0199 29.8104 14.7965 29.6396 15.2236C30.75 16.4365 31.3992 17.9569 31.3992 19.8532C31.3992 26.379 27.4017 27.814 23.5921 28.2411C24.2071 28.7707 24.7708 29.8128 24.7708 31.4015V36.0824C24.7708 36.5436 25.0442 37.0903 25.9154 36.9365C32.6975 34.6474 37.5833 28.2582 37.5833 20.7074C37.5833 18.4639 37.1415 16.2425 36.2829 14.1698C35.4244 12.0972 34.1661 10.2139 32.5797 8.62761C30.9934 7.04128 29.1101 5.78293 27.0375 4.92441C24.9649 4.0659 22.7434 3.62402 20.5 3.62402Z" fill="white"/>
</svg>
