<svg width="17" height="17" viewBox="0 0 17 17" fill="none" xmlns="http://www.w3.org/2000/svg">
<path d="M12.75 0.70752H4.25C2.17893 0.70752 0.5 2.38645 0.5 4.45752V12.9575C0.5 15.0286 2.17893 16.7075 4.25 16.7075H12.75C14.8211 16.7075 16.5 15.0286 16.5 12.9575V4.45752C16.5 2.38645 14.8211 0.70752 12.75 0.70752Z" fill="url(#paint0_radial_26_1594)"/>
<path d="M12.75 0.70752H4.25C2.17893 0.70752 0.5 2.38645 0.5 4.45752V12.9575C0.5 15.0286 2.17893 16.7075 4.25 16.7075H12.75C14.8211 16.7075 16.5 15.0286 16.5 12.9575V4.45752C16.5 2.38645 14.8211 0.70752 12.75 0.70752Z" fill="url(#paint1_radial_26_1594)"/>
<path d="M8.50056 2.45752C6.80319 2.45752 6.59013 2.46496 5.9235 2.49527C5.25813 2.52577 4.80394 2.63108 4.40656 2.78564C3.99544 2.94527 3.64675 3.15883 3.29938 3.50633C2.95169 3.85377 2.73813 4.20246 2.578 4.61339C2.423 5.01089 2.31756 5.46527 2.28762 6.13033C2.25781 6.79702 2.25 7.01015 2.25 8.70758C2.25 10.405 2.2575 10.6174 2.28775 11.284C2.31838 11.9494 2.42369 12.4036 2.57812 12.801C2.73787 13.2121 2.95144 13.5608 3.29894 13.9081C3.64625 14.2558 3.99494 14.4699 4.40575 14.6295C4.80344 14.7841 5.25769 14.8894 5.92294 14.9199C6.58962 14.9502 6.8025 14.9576 8.49981 14.9576C10.1974 14.9576 10.4097 14.9502 11.0764 14.9199C11.7417 14.8894 12.1964 14.7841 12.5941 14.6295C13.0051 14.4699 13.3532 14.2558 13.7005 13.9081C14.0482 13.5608 14.2617 13.2121 14.4219 12.8011C14.5755 12.4036 14.681 11.9493 14.7122 11.2841C14.7422 10.6175 14.75 10.405 14.75 8.70758C14.75 7.01015 14.7422 6.79714 14.7122 6.13046C14.681 5.46508 14.5755 5.01096 14.4219 4.61358C14.2617 4.20246 14.0482 3.85377 13.7005 3.50633C13.3529 3.15871 13.0052 2.94514 12.5938 2.78571C12.1953 2.63108 11.7409 2.52571 11.0755 2.49527C10.4088 2.46496 10.1966 2.45752 8.49862 2.45752H8.50056ZM7.93988 3.58383C8.10631 3.58358 8.292 3.58383 8.50056 3.58383C10.1694 3.58383 10.3671 3.58983 11.0261 3.61977C11.6355 3.64764 11.9663 3.74946 12.1866 3.83502C12.4783 3.94827 12.6862 4.08371 12.9048 4.30252C13.1236 4.52127 13.2589 4.72958 13.3725 5.02127C13.4581 5.24127 13.56 5.57202 13.5878 6.18139C13.6177 6.84027 13.6242 7.03814 13.6242 8.70614C13.6242 10.3741 13.6177 10.5721 13.5878 11.2309C13.5599 11.8403 13.4581 12.171 13.3725 12.3911C13.2593 12.6828 13.1236 12.8905 12.9048 13.1091C12.6861 13.3278 12.4784 13.4632 12.1866 13.5765C11.9665 13.6625 11.6355 13.764 11.0261 13.7919C10.3673 13.8218 10.1694 13.8283 8.50056 13.8283C6.83169 13.8283 6.63387 13.8218 5.97506 13.7919C5.36569 13.7638 5.03494 13.662 4.81444 13.5764C4.52281 13.4631 4.31444 13.3277 4.09569 13.109C3.87694 12.8902 3.74156 12.6824 3.628 12.3906C3.54244 12.1705 3.4405 11.8398 3.41275 11.2304C3.38281 10.5715 3.37681 10.3736 3.37681 8.70458C3.37681 7.03552 3.38281 6.83871 3.41275 6.17983C3.44062 5.57046 3.54244 5.23971 3.628 5.01939C3.74131 4.72771 3.87694 4.51939 4.09575 4.30064C4.31456 4.08189 4.52281 3.94646 4.8145 3.83296C5.03481 3.74702 5.36569 3.64546 5.97506 3.61746C6.55162 3.59139 6.77506 3.58358 7.93988 3.58227V3.58383ZM11.8368 4.62158C11.4228 4.62158 11.0868 4.95721 11.0868 5.37133C11.0868 5.78539 11.4228 6.12133 11.8368 6.12133C12.2509 6.12133 12.5868 5.78539 12.5868 5.37133C12.5868 4.95727 12.2509 4.62133 11.8368 4.62133V4.62158ZM8.50056 5.49789C6.72806 5.49789 5.29094 6.93502 5.29094 8.70758C5.29094 10.4801 6.72806 11.9166 8.50056 11.9166C10.2731 11.9166 11.7098 10.4801 11.7098 8.70758C11.7098 6.93508 10.273 5.49789 8.50044 5.49789H8.50056ZM8.50056 6.62421C9.65112 6.62421 10.5839 7.5569 10.5839 8.70758C10.5839 9.85814 9.65112 10.791 8.50056 10.791C7.35 10.791 6.41725 9.85814 6.41725 8.70758C6.41725 7.5569 7.34994 6.62421 8.50056 6.62421Z" fill="white"/>
<defs>
<radialGradient id="paint0_radial_26_1594" cx="0" cy="0" r="1" gradientUnits="userSpaceOnUse" gradientTransform="translate(4.75 17.9398) rotate(-90) scale(15.8572 14.7484)">
<stop stop-color="#FFDD55"/>
<stop offset="0.1" stop-color="#FFDD55"/>
<stop offset="0.5" stop-color="#FF543E"/>
<stop offset="1" stop-color="#C837AB"/>
</radialGradient>
<radialGradient id="paint1_radial_26_1594" cx="0" cy="0" r="1" gradientUnits="userSpaceOnUse" gradientTransform="translate(-2.18006 1.86008) rotate(78.681) scale(7.08825 29.218)">
<stop stop-color="#3771C8"/>
<stop offset="0.128" stop-color="#3771C8"/>
<stop offset="1" stop-color="#6600FF" stop-opacity="0"/>
</radialGradient>
</defs>
</svg>
