<svg width="41" height="42" viewBox="0 0 41 42" fill="none" xmlns="http://www.w3.org/2000/svg">
<path d="M22.2562 3.62402C24.1781 3.62915 25.1535 3.6394 25.9957 3.66332L26.3271 3.67527C26.7098 3.68894 27.0873 3.70602 27.5435 3.72652C29.3611 3.81194 30.6014 4.09894 31.6896 4.5209C32.8171 4.95482 33.7669 5.54248 34.7168 6.49061C35.5858 7.34432 36.258 8.37741 36.6865 9.51777C37.1084 10.606 37.3954 11.8462 37.4809 13.6656C37.5014 14.12 37.5184 14.4976 37.5321 14.8819L37.5423 15.2134C37.568 16.0539 37.5782 17.0293 37.5816 18.9512L37.5833 20.2256V22.4635C37.5875 23.7096 37.5744 24.9556 37.5441 26.2014L37.5338 26.5328C37.5201 26.9171 37.5031 27.2947 37.4826 27.7491C37.3971 29.5685 37.1067 30.807 36.6865 31.8969C36.258 33.0373 35.5858 34.0704 34.7168 34.9241C33.8631 35.7931 32.83 36.4653 31.6896 36.8938C30.6014 37.3158 29.3611 37.6028 27.5435 37.6882L26.3271 37.7394L25.9957 37.7497C25.1535 37.7736 24.1781 37.7856 22.2562 37.789L20.9818 37.7907H18.7456C17.4989 37.7951 16.2523 37.782 15.006 37.7514L14.6746 37.7411C14.2691 37.7258 13.8636 37.7081 13.4583 37.6882C11.6406 37.6028 10.4003 37.3158 9.31043 36.8938C8.17068 36.4651 7.13819 35.7929 6.28497 34.9241C5.41534 34.0706 4.74253 33.0374 4.31356 31.8969C3.8916 30.8087 3.6046 29.5685 3.51918 27.7491L3.46793 26.5328L3.45939 26.2014C3.4279 24.9557 3.41366 23.7096 3.41668 22.4635V18.9512C3.41195 17.7051 3.42448 16.4591 3.45427 15.2134L3.46622 14.8819C3.47989 14.4976 3.49697 14.12 3.51747 13.6656C3.60289 11.8462 3.88989 10.6077 4.31185 9.51777C4.74183 8.37694 5.41581 7.34381 6.28668 6.49061C7.1394 5.622 8.17129 4.94982 9.31043 4.5209C10.4003 4.09894 11.6389 3.81194 13.4583 3.72652C13.9127 3.70602 14.2919 3.68894 14.6746 3.67527L15.006 3.66502C16.2517 3.63467 17.4978 3.62157 18.7438 3.62573L22.2562 3.62402ZM20.5 12.1657C18.2346 12.1657 16.062 13.0656 14.4601 14.6675C12.8583 16.2694 11.9583 18.442 11.9583 20.7074C11.9583 22.9727 12.8583 25.1453 14.4601 26.7472C16.062 28.3491 18.2346 29.249 20.5 29.249C22.7654 29.249 24.938 28.3491 26.5399 26.7472C28.1418 25.1453 29.0417 22.9727 29.0417 20.7074C29.0417 18.442 28.1418 16.2694 26.5399 14.6675C24.938 13.0656 22.7654 12.1657 20.5 12.1657ZM20.5 15.5824C21.173 15.5822 21.8395 15.7147 22.4613 15.9721C23.0832 16.2296 23.6482 16.607 24.1242 17.0828C24.6002 17.5586 24.9778 18.1236 25.2354 18.7453C25.4931 19.3671 25.6258 20.0335 25.6259 20.7065C25.626 21.3795 25.4935 22.046 25.2361 22.6678C24.9786 23.2897 24.6012 23.8547 24.1254 24.3307C23.6496 24.8067 23.0847 25.1842 22.4629 25.4419C21.8412 25.6996 21.1747 25.8322 20.5017 25.8324C19.1425 25.8324 17.8389 25.2924 16.8778 24.3313C15.9167 23.3702 15.3767 22.0666 15.3767 20.7074C15.3767 19.3481 15.9167 18.0446 16.8778 17.0834C17.8389 16.1223 19.1425 15.5824 20.5017 15.5824M29.4705 9.60319C28.9041 9.60319 28.361 9.82817 27.9605 10.2286C27.56 10.6291 27.3351 11.1723 27.3351 11.7386C27.3351 12.305 27.56 12.8481 27.9605 13.2486C28.361 13.649 28.9041 13.874 29.4705 13.874C30.0368 13.874 30.58 13.649 30.9804 13.2486C31.3809 12.8481 31.6059 12.305 31.6059 11.7386C31.6059 11.1723 31.3809 10.6291 30.9804 10.2286C30.58 9.82817 30.0368 9.60319 29.4705 9.60319Z" fill="white"/>
</svg>
