<svg width="17" height="17" viewBox="0 0 17 17" fill="none" xmlns="http://www.w3.org/2000/svg">
<path d="M12.75 0.70752H4.25C2.17893 0.70752 0.5 2.38645 0.5 4.45752V12.9575C0.5 15.0286 2.17893 16.7075 4.25 16.7075H12.75C14.8211 16.7075 16.5 15.0286 16.5 12.9575V4.45752C16.5 2.38645 14.8211 0.70752 12.75 0.70752Z" fill="white"/>
<path d="M12.75 0.70752H4.25C2.17893 0.70752 0.5 2.38645 0.5 4.45752V12.9575C0.5 15.0286 2.17893 16.7075 4.25 16.7075H12.75C14.8211 16.7075 16.5 15.0286 16.5 12.9575V4.45752C16.5 2.38645 14.8211 0.70752 12.75 0.70752Z" fill="#0A66C2"/>
<path d="M12.0447 14.3128H13.8741C13.9404 14.3128 14.0039 14.2865 14.0508 14.2396C14.0977 14.1928 14.124 14.1292 14.1241 14.0629L14.125 10.1978C14.125 8.17758 13.6897 6.62477 11.3289 6.62477C10.4314 6.59139 9.58512 7.05402 9.12844 7.82652C9.1262 7.83027 9.12281 7.83319 9.11876 7.83483C9.11471 7.83647 9.11024 7.83674 9.10603 7.8356C9.10181 7.83446 9.09808 7.83197 9.09542 7.82851C9.09275 7.82506 9.09129 7.82082 9.09125 7.81646V7.06127C9.09125 6.99497 9.06491 6.93138 9.01803 6.88449C8.97114 6.83761 8.90755 6.81127 8.84125 6.81127H7.10519C7.03888 6.81127 6.9753 6.83761 6.92841 6.88449C6.88153 6.93138 6.85519 6.99497 6.85519 7.06127V14.0625C6.85519 14.1288 6.88153 14.1924 6.92841 14.2393C6.9753 14.2862 7.03888 14.3125 7.10519 14.3125H8.93444C9.00074 14.3125 9.06433 14.2862 9.11121 14.2393C9.1581 14.1924 9.18444 14.1288 9.18444 14.0625V10.6017C9.18444 9.62315 9.37006 8.67546 10.5833 8.67546C11.7792 8.67546 11.7947 9.79521 11.7947 10.6651V14.0628C11.7947 14.1291 11.821 14.1927 11.8679 14.2396C11.9148 14.2865 11.9784 14.3128 12.0447 14.3128ZM2.875 4.43427C2.875 5.17577 3.48544 5.78589 4.227 5.78589C4.96837 5.78583 5.57844 5.17533 5.57844 4.43396C5.57831 3.69258 4.96819 3.08252 4.22675 3.08252C3.48512 3.08252 2.875 3.69277 2.875 4.43427ZM3.30994 14.3128H5.14162C5.20793 14.3128 5.27152 14.2865 5.3184 14.2396C5.36529 14.1927 5.39162 14.1291 5.39162 14.0628V7.06127C5.39162 6.99497 5.36529 6.93138 5.3184 6.88449C5.27152 6.83761 5.20793 6.81127 5.14162 6.81127H3.30994C3.24363 6.81127 3.18004 6.83761 3.13316 6.88449C3.08628 6.93138 3.05994 6.99497 3.05994 7.06127V14.0628C3.05994 14.1291 3.08628 14.1927 3.13316 14.2396C3.18004 14.2865 3.24363 14.3128 3.30994 14.3128Z" fill="white"/>
</svg>
