<svg width="41" height="42" viewBox="0 0 41 42" fill="none" xmlns="http://www.w3.org/2000/svg">
<path d="M32.4583 5.33252C33.3645 5.33252 34.2335 5.69249 34.8743 6.33324C35.515 6.97399 35.875 7.84303 35.875 8.74919V32.6659C35.875 33.572 35.515 34.4411 34.8743 35.0818C34.2335 35.7225 33.3645 36.0825 32.4583 36.0825H8.54167C7.63551 36.0825 6.76647 35.7225 6.12572 35.0818C5.48497 34.4411 5.125 33.572 5.125 32.6659V8.74919C5.125 7.84303 5.48497 6.97399 6.12572 6.33324C6.76647 5.69249 7.63551 5.33252 8.54167 5.33252H32.4583ZM31.6042 31.8117V22.7575C31.6042 21.2805 31.0174 19.8639 29.973 18.8195C28.9286 17.7751 27.512 17.1884 26.035 17.1884C24.5829 17.1884 22.8917 18.0767 22.0717 19.4092V17.5129H17.3054V31.8117H22.0717V23.3896C22.0717 22.0742 23.1308 20.9979 24.4463 20.9979C25.0806 20.9979 25.6889 21.2499 26.1374 21.6984C26.5859 22.147 26.8379 22.7553 26.8379 23.3896V31.8117H31.6042ZM11.7533 14.8309C12.5145 14.8309 13.2445 14.5285 13.7827 13.9903C14.321 13.452 14.6233 12.722 14.6233 11.9609C14.6233 10.3721 13.3421 9.07377 11.7533 9.07377C10.9876 9.07377 10.2533 9.37794 9.71186 9.91938C9.17042 10.4608 8.86625 11.1952 8.86625 11.9609C8.86625 13.5496 10.1646 14.8309 11.7533 14.8309ZM14.1279 31.8117V17.5129H9.39583V31.8117H14.1279Z" fill="white"/>
</svg>
