<svg width="40" height="40" viewBox="0 0 40 40" fill="none" xmlns="http://www.w3.org/2000/svg">
<path fill-rule="evenodd" clip-rule="evenodd" d="M20 6.6665C21.425 6.6665 22.8866 6.70317 24.3033 6.76317L25.9766 6.84317L27.5783 6.93817L29.0783 7.03984L30.4483 7.1465C31.9353 7.25966 33.3346 7.89389 34.3999 8.93751C35.4652 9.98112 36.128 11.3672 36.2716 12.8515L36.3383 13.5598L36.4633 15.0765C36.58 16.6482 36.6666 18.3615 36.6666 19.9998C36.6666 21.6382 36.58 23.3515 36.4633 24.9232L36.3383 26.4398L36.2716 27.1482C36.1279 28.6328 35.4649 30.019 34.3993 31.0627C33.3337 32.1063 31.9339 32.7404 30.4466 32.8532L29.08 32.9582L27.58 33.0615L25.9766 33.1565L24.3033 33.2365C22.8697 33.2986 21.4349 33.3308 20 33.3332C18.565 33.3308 17.1303 33.2986 15.6966 33.2365L14.0233 33.1565L12.4216 33.0615L10.9216 32.9582L9.55165 32.8532C8.06467 32.74 6.66531 32.1058 5.60005 31.0622C4.53479 30.0186 3.87196 28.6325 3.72831 27.1482L3.66165 26.4398L3.53665 24.9232C3.4097 23.285 3.34188 21.6429 3.33331 19.9998C3.33331 18.3615 3.41998 16.6482 3.53665 15.0765L3.66165 13.5598L3.72831 12.8515C3.87191 11.3674 4.5345 9.98159 5.59942 8.93801C6.66434 7.89444 8.0633 7.26003 9.54998 7.1465L10.9183 7.03984L12.4183 6.93817L14.0216 6.84317L15.695 6.76317C17.1292 6.70105 18.5645 6.66882 20 6.6665ZM16.6666 15.9582V24.0415C16.6666 24.8115 17.5 25.2915 18.1666 24.9082L25.1666 20.8665C25.319 20.7788 25.4455 20.6525 25.5335 20.5004C25.6214 20.3482 25.6678 20.1756 25.6678 19.9998C25.6678 19.8241 25.6214 19.6514 25.5335 19.4993C25.4455 19.3471 25.319 19.2209 25.1666 19.1332L18.1666 15.0932C18.0146 15.0054 17.8421 14.9592 17.6665 14.9592C17.4909 14.9592 17.3184 15.0055 17.1664 15.0933C17.0143 15.1812 16.8881 15.3075 16.8004 15.4596C16.7127 15.6117 16.6665 15.7842 16.6666 15.9598V15.9582Z" fill="white"/>
</svg>
